# xmcd
#
# Track frame offsets: 
#        150
#        19272
#        46391
#        70685
#        93717
#        119623
#        144080
#        164644
#        184543
#        205164
#        230699
#
# Disc length: 3367 seconds
#
# Revision: 0
# Processed by: cddbd v1.5.2PL0 Copyright (c) Steve Scherf et al.
# Submitted via: ExactAudioCopy v0.95b3
#
DISCID=9a0d250b
DTITLE=The Horseflies - Until The Ocean
DYEAR=2008
DGENRE=Acid Bluegrass Funk
TTITLE0=Build A House And Burn It Down
TTITLE1=Drunkard's Child
TTITLE2=Rafting (From My Front Door)
TTITLE3=Carnival Lips
TTITLE4=Veins Of Coal
TTITLE5=A Hundred Camels
TTITLE6=Three Shoes
TTITLE7=Oh Death
TTITLE8=14 Reasons
TTITLE9=Baghdad Children
TTITLE10=Cluck Old Hen
EXTD=
EXTT0=
EXTT1=
EXTT2=
EXTT3=
EXTT4=
EXTT5=
EXTT6=
EXTT7=
EXTT8=
EXTT9=
EXTT10=
PLAYORDER=
